<svg id="Layer_1" data-name="Layer 1" xmlns="http://www.w3.org/2000/svg" viewBox="0 0 749.83 183.12"><defs><style>.cls-1{fill:#b2afd8;stroke:#6f72aa;}.cls-1,.cls-11,.cls-2,.cls-3,.cls-4,.cls-9{stroke-miterlimit:10;}.cls-2{font-size:8px;}.cls-10,.cls-2,.cls-3,.cls-4,.cls-5,.cls-7{fill:#fff;font-family:Young;}.cls-2,.cls-3,.cls-4{stroke:#fff;stroke-width:0.1px;}.cls-3,.cls-5{font-size:5px;}.cls-4{font-size:7.5px;}.cls-6{letter-spacing:-0.02em;}.cls-7{font-size:6px;}.cls-8{letter-spacing:-0.02em;}.cls-9{fill:#6e6daf;stroke:#3c4275;}.cls-10{font-size:5.5px;}.cls-11{fill:none;stroke:#11044f;stroke-width:2px;}.cls-12{letter-spacing:-0.02em;}.cls-13{letter-spacing:-0.1em;}</style></defs><title>peg-diagram</title><rect class="cls-1" x="12.65" y="0.5" width="92.13" height="29.16"/><text class="cls-2" transform="translate(29.52 12.77)">ALICE’S <tspan x="-7.04" y="9.6">DEPOSIT TX</tspan></text><rect class="cls-1" x="75" y="0.5" width="29.77" height="29.16"/><text class="cls-3" transform="translate(79.77 16.39)">OUTPUT</text><rect class="cls-1" x="12.65" y="35.08" width="92.13" height="29.16"/><text class="cls-2" transform="translate(32.77 47.35)">BOB’S<tspan x="-10.3" y="9.6">DEPOSIT TX</tspan></text><rect class="cls-1" x="75" y="35.08" width="29.77" height="29.16"/><text class="cls-3" transform="translate(79.77 50.96)">OUTPUT</text><rect class="cls-1" x="12.65" y="69.65" width="92.13" height="29.16"/><text class="cls-2" transform="translate(42.07 86.93)">...</text><rect class="cls-1" x="75" y="69.65" width="29.77" height="29.16"/><text class="cls-3" transform="translate(79.77 85.54)">OUTPUT</text><rect class="cls-1" x="59.3" y="139.06" width="112.33" height="40.46"/><text class="cls-4" transform="translate(75.72 157.28)">PREVIOUS<tspan x="-10.46" y="9">CHECKPOINT TX</tspan></text><rect class="cls-1" x="130.88" y="139.15" width="40.85" height="20.15"/><rect class="cls-1" x="130.88" y="159.29" width="40.85" height="20.23"/><rect class="cls-1" x="18.97" y="139.1" width="40.85" height="20.15"/><rect class="cls-1" x="18.97" y="159.25" width="40.85" height="20.23"/><text class="cls-5" transform="translate(23.24 148.18)">COLL<tspan class="cls-6" x="13.56" y="0">E</tspan><tspan x="16.54" y="0">CTION</tspan><tspan x="8.67" y="6">INPUT</tspan></text><text class="cls-7" y="-51"><tspan x="26.25" y="167.37">RESERVE</tspan><tspan x="30.6" y="174.57">INPU</tspan><tspan class="cls-8" x="45.38" y="174.57">T</tspan></text><text y="-51"/><text class="cls-7" transform="translate(134.98 147.41)">DISBURSAL<tspan x="3.93" y="7.2">OUTPUT</tspan></text><text class="cls-7" transform="translate(138.15 167.2)">RESERVE<tspan x="0.76" y="7.2">OUTPUT</tspan></text><rect class="cls-9" x="174.16" y="22.22" width="112.33" height="55.01"/><text class="cls-4" transform="translate(185.4 47.44)">COLLECTION<tspan x="20.15" y="9">TX</tspan></text><rect class="cls-9" x="245.73" y="22.33" width="40.85" height="54.9"/><text y="-51"/><text class="cls-7" transform="translate(254.76 51.74)">OUTPUT</text><rect class="cls-9" x="127.83" y="22.22" width="46.85" height="18.33"/><rect class="cls-9" x="127.83" y="40.56" width="46.85" height="18.33"/><rect class="cls-9" x="127.83" y="58.89" width="46.85" height="18.33"/><text class="cls-10" transform="translate(132.91 33.74)">ALICE’S INPUT</text><text class="cls-10" transform="translate(135.15 51.74)">BOB’S INPUT</text><text class="cls-10" transform="translate(149.52 70.09)">...</text><line class="cls-11" x1="104.78" y1="15.08" x2="127.83" y2="30.39"/><line class="cls-11" x1="104.78" y1="49.36" x2="127.83" y2="49.36"/><line class="cls-11" x1="104.78" y1="84.23" x2="127.83" y2="68.06"/><rect class="cls-9" x="360.92" y="127.6" width="112.33" height="55.01"/><text class="cls-4" transform="translate(371.8 152.82)">CHECKPOINT<tspan x="20.51" y="9">TX</tspan></text><text y="-51"/><rect class="cls-9" x="314.34" y="127.6" width="46.85" height="27.5"/><text class="cls-10" transform="translate(321 140.13)">COLLECTION<tspan x="9.59" y="6.6">INPUT</tspan></text><rect class="cls-9" x="314.34" y="155.1" width="46.85" height="27.5"/><text class="cls-10" transform="translate(326.76 167.4)">RES<tspan class="cls-12" x="10" y="0">E</tspan><tspan x="13.28" y="0">RVE</tspan><tspan x="3.77" y="6.6">INPUT</tspan></text><line class="cls-11" x1="286.58" y1="51.74" x2="314.34" y2="141.35"/><line class="cls-11" x1="171.73" y1="168.85" x2="314.34" y2="168.85"/><rect class="cls-9" x="426.41" y="127.6" width="46.85" height="27.5"/><text class="cls-10" transform="translate(435.93 140.13)">DISBURSAL<tspan x="3.6" y="6.6">OUTPUT</tspan></text><rect class="cls-9" x="426.41" y="155.1" width="46.85" height="27.5"/><text class="cls-10" transform="translate(438.78 167.4)">RESERVE<tspan x="0.69" y="6.6">OUTPUT</tspan></text><rect class="cls-9" x="553.08" y="22.22" width="112.33" height="55.01"/><text class="cls-4" transform="translate(568.22 47.44)">DISBURSAL<tspan x="16.25" y="9">TX</tspan></text><text y="-51"/><text class="cls-10" transform="translate(513.15 34.74)">COLLECTION<tspan x="9.59" y="6.6">INPUT</tspan></text><rect class="cls-9" x="506.49" y="22.22" width="46.85" height="55"/><text class="cls-10" transform="translate(521.68 51.72)">INPUT</text><rect class="cls-1" x="627.52" y="138.86" width="112.33" height="40.46"/><text class="cls-4" transform="translate(653.91 157.07)">NEXT<tspan x="-20.43" y="9">CHECKPOINT TX</tspan></text><rect class="cls-1" x="699.1" y="138.94" width="40.85" height="20.15"/><rect class="cls-1" x="699.1" y="159.09" width="40.85" height="20.23"/><rect class="cls-1" x="587.19" y="138.9" width="40.85" height="20.15"/><rect class="cls-1" x="587.19" y="159.04" width="40.85" height="20.23"/><text class="cls-5" transform="translate(591.46 147.97)">COLL<tspan class="cls-6" x="13.56" y="0">E</tspan><tspan x="16.54" y="0">CTION</tspan><tspan x="8.67" y="6">INPUT</tspan></text><text class="cls-7" y="-51"><tspan x="594.46" y="167.17">RESERVE</tspan><tspan x="598.81" y="174.37">INPU</tspan><tspan class="cls-8" x="613.6" y="174.37">T</tspan></text><text class="cls-7" transform="translate(703.2 147.21)">DISBURSAL<tspan x="3.93" y="7.2">OUTPUT</tspan></text><text class="cls-7" transform="translate(706.37 166.99)">RESERVE<tspan x="0.76" y="7.2">OUTPUT</tspan></text><line class="cls-11" x1="473.26" y1="168.85" x2="587.29" y2="168.85"/><line class="cls-11" x1="473.26" y1="140.13" x2="506.49" y2="49.72"/><line class="cls-11" y1="169.41" x2="18.97" y2="169.41"/><line class="cls-11" y1="149.18" x2="18.97" y2="149.18"/><line class="cls-11" x1="739.95" y1="169.16" x2="749.83" y2="169.16"/><line class="cls-11" x1="739.8" y1="149.01" x2="749.68" y2="149.01"/><rect class="cls-9" x="618.56" y="22.22" width="46.85" height="18.33"/><rect class="cls-9" x="618.56" y="40.56" width="46.85" height="18.33"/><rect class="cls-9" x="618.56" y="58.9" width="46.85" height="18.33"/><text class="cls-10" transform="translate(630.9 29.75)">CAROL’S<tspan x="0.53" y="6.6">OUTPUT</tspan></text><text class="cls-10" transform="translate(633.31 47.75)">D<tspan class="cls-13" x="3.84" y="0">A</tspan><tspan x="7.15" y="0">VE’S</tspan><tspan x="-1.88" y="6.6">OUTPUT</tspan></text><text class="cls-10" transform="translate(640.36 70.1)">...</text></svg>